<svg xmlns="http://www.w3.org/2000/svg" xmlns:xlink="http://www.w3.org/1999/xlink" version="1.1" id="Warstwa_1" x="0px" y="0px" width="50px" height="50px" viewBox="0 0 50 50" style="enable-background:new 0 0 50 50;" xml:space="preserve">
<style type="text/css">
	.st0{fill:#FFE721;}
</style>
<g id="Group_45" transform="translate(-1783 -5000)">
	<rect id="Rectangle_80" x="1783" y="5000" class="st0" width="50" height="50"/>
	<g id="Group_44" transform="translate(152.708 5025.303)">
		<path id="Path_255" d="M1649.7-5.8h-16.2v-3.6h10l-9.5-9.5l2.6-2.6l9.4,9.4l0.1,0v-10h3.6L1649.7-5.8z"/>
		<path id="Path_256" d="M1646.1,11.3l-9.5,9.5l-2.6-2.6l9.5-9.5h-10.1V5.1h16.2v16.2h-3.6V11.3z"/>
		<path id="Path_257" d="M1666.8-9.4h10v3.6h-16.2V-22h3.6v10l9.5-9.5l2.6,2.6L1666.8-9.4L1666.8-9.4z"/>
		<path id="Path_258" d="M1660.6,5.1h16.2v3.6h-10l9.5,9.5l-2.6,2.6l-9.5-9.5l-0.1,0v10h-3.6L1660.6,5.1z"/>
	</g>
</g>
</svg>
